<svg class="ldi-avu4ig" width="129px"  height="129px"  xmlns="http://www.w3.org/2000/svg" xmlns:xlink="http://www.w3.org/1999/xlink" viewBox="0 0 100 100" preserveAspectRatio="xMidYMid" style="background: none;"><!--?xml version="1.0" encoding="utf-8"?--><!--Generator: Adobe Illustrator 21.0.0, SVG Export Plug-In . SVG Version: 6.00 Build 0)--><svg version="1.1" id="圖層_1" xmlns="http://www.w3.org/2000/svg" xmlns:xlink="http://www.w3.org/1999/xlink" x="0px" y="0px" viewBox="0 0 100 100" style="transform-origin: 50px 50px 0px;" xml:space="preserve"><g style="transform-origin: 50px 50px 0px;"><g style="transform-origin: 50px 50px 0px; transform: scale(0.81);"><g style="transform-origin: 50px 50px 0px;"><g><style type="text/css" style="transform-origin: 50px 50px 0px; animation-duration: 1.1s; animation-delay: -1.1s; animation-direction: normal;" class="ld ld-heartbeat">.st0{fill:#666666;} .st1{fill:#EBB885;} .st2{fill:#E0E0E0;} .st3{fill:#A0C8D7;} .st4{fill:#66503A;} .st5{fill:#ABBD81;} .st6{fill:#A0C8D7;stroke:#333333;stroke-width:2;stroke-miterlimit:10;} .st7{fill:#FFFFFF;} .st8{fill:#66503A;stroke:#333333;stroke-width:2;stroke-miterlimit:10;} .st9{fill:#E0E0E0;stroke:#333333;stroke-width:2;stroke-miterlimit:10;} .st10{fill:#03AFF3;} .st11{fill:none;stroke:#333333;stroke-width:5;stroke-linecap:round;stroke-miterlimit:10;} .st12{fill:#8C6239;} .st13{fill:#F5E6C8;} .st14{fill:#333333;} .st15{fill:#F47E60;} .st16{fill:#E15B64;} .st17{fill:none;stroke:#000000;stroke-width:6;stroke-miterlimit:10;} .st18{fill:#4A3827;} .st19{fill:none;stroke:#666666;stroke-width:5.8262;stroke-linecap:round;stroke-miterlimit:10;} .st20{fill:#77A4BD;} .st21{fill:#F8B26A;} .st22{fill:#849B87;} .st23{fill:none;} .st24{fill:#FFFFFF;stroke:#000000;stroke-width:4;stroke-miterlimit:10;} .st25{fill:none;stroke:#849B87;stroke-width:4;stroke-miterlimit:10;} .st26{fill:none;stroke:#849B87;stroke-width:4.1718;stroke-miterlimit:10;} .st27{fill:#C33737;} .st28{fill:#FFDC6C;stroke:#FFFFFF;stroke-width:2.4393;stroke-miterlimit:10;} .st29{stroke:#000000;stroke-width:3;stroke-miterlimit:10;} .st30{stroke:#000000;stroke-width:3;stroke-linecap:round;stroke-linejoin:round;stroke-miterlimit:10;} .st31{fill:#E0E0E0;stroke:#000000;stroke-width:3;stroke-miterlimit:10;} .st32{fill:#735441;} .st33{fill:#C8DC96;} .st34{fill:#F5E6C8;stroke:#C33737;stroke-width:6;stroke-miterlimit:10;} .st35{fill:#F5E6C8;stroke:#000000;stroke-width:4.2393;stroke-miterlimit:10;} .st36{fill:#F5E169;} .st37{fill:#FFDC6C;} .st38{fill:none;stroke:#000000;stroke-width:5.1342;stroke-miterlimit:10;} .st39{fill:none;stroke:#000000;stroke-width:4.908;stroke-miterlimit:10;} .st40{fill:none;stroke:#000000;stroke-width:5.0371;stroke-miterlimit:10;} .st41{fill:none;stroke:#000000;stroke-width:5.4333;stroke-miterlimit:10;} .st42{fill:none;stroke:#333333;stroke-width:4.308;stroke-miterlimit:10;} .st43{fill:#F8B26A;stroke:#333333;stroke-width:3;stroke-miterlimit:10;} .st44{fill:#FFFF00;stroke:#333333;stroke-width:3;stroke-miterlimit:10;} .st45{fill:#F8B26A;stroke:#F47E60;stroke-width:2.326;stroke-miterlimit:10;} .st46{fill:#333333;stroke:#333333;stroke-width:3;stroke-miterlimit:10;} .st47{fill:#8A8A8A;} .st48{fill:none;stroke:#333333;stroke-width:3;stroke-linecap:round;stroke-linejoin:round;stroke-miterlimit:10;} .st49{fill:none;stroke:#333333;stroke-width:2;stroke-linecap:round;stroke-linejoin:round;stroke-miterlimit:10;} .st50{fill:#983733;} .st51{fill:#D50D01;} .st52{fill:#81C927;} .st53{fill:#C33737;stroke:#333333;stroke-width:2;stroke-miterlimit:10;} .st54{fill:#F5E6C8;stroke:#333333;stroke-width:2;stroke-miterlimit:10;} .st55{fill:#FFFFFF;stroke:#333333;stroke-width:4;stroke-miterlimit:10;} .st56{fill:none;stroke:#E15B64;stroke-width:3;stroke-miterlimit:10;} .st57{fill:#FFFFFF;stroke:#333333;stroke-width:6;stroke-linecap:round;stroke-miterlimit:10;}</style><g style="transform-origin: 50px 50px 0px; animation-duration: 1.1s; animation-delay: -1.02667s; animation-direction: normal;" class="ld ld-heartbeat"><path class="st21" d="M65.164,29.334v24.064c0,0.427-0.347,0.774-0.774,0.774H57.71c-0.027,0-0.049-0.022-0.049-0.049V39.208H42.339 v14.915c0,0.027-0.022,0.049-0.049,0.049h-6.681c-0.427,0-0.774-0.347-0.774-0.774V29.334l-2.527,2.527v21.536 c0,1.823,1.478,3.301,3.301,3.301h6.681c1.423,0,2.577-1.154,2.577-2.577V41.735h10.266v12.387c0,1.423,1.154,2.577,2.577,2.577 h6.681c1.823,0,3.301-1.478,3.301-3.301V31.862L65.164,29.334z" fill="#666" style="fill: rgb(102, 102, 102);"></path></g><g style="transform-origin: 50px 50px 0px; animation-duration: 1.1s; animation-delay: -0.953333s; animation-direction: normal;" class="ld ld-heartbeat"><path class="st27" d="M67.692,36.294l1.756,1.756c1.244,1.244,3.26,1.244,4.504,0l0.046-0.045c1.244-1.244,1.244-3.26,0-4.504 l-6.305-6.305l-4.027-4.027l-11.52-11.52c-1.184-1.184-3.104-1.184-4.289,0l-11.52,11.52l-4.027,4.027L26.003,33.5 c-1.244,1.244-1.244,3.26,0,4.504l0.046,0.045c1.244,1.244,3.26,1.244,4.504,0l1.756-1.756l2.527-2.527l8.071-8.071l2.527-2.527 L50,18.602l4.566,4.566l2.527,2.527l8.071,8.071L67.692,36.294z" fill="#666" style="fill: rgb(102, 102, 102);"></path></g><g style="transform-origin: 50px 50px 0px; animation-duration: 1.1s; animation-delay: -0.88s; animation-direction: normal;" class="ld ld-heartbeat"><path class="st13" d="M54.566,23.168L50,18.602l-4.566,4.566l-2.527,2.527l-8.071,8.071v19.632c0,0.427,0.347,0.774,0.774,0.774 h6.681c0.027,0,0.049-0.022,0.049-0.049V41.735v-2.527h2.527h10.266h2.527v2.527v12.387c0,0.027,0.022,0.049,0.049,0.049h6.681 c0.427,0,0.774-0.347,0.774-0.774V33.766l-8.071-8.071L54.566,23.168z" fill="#00c0ff" style="fill: rgb(0, 192, 255);"></path></g><g style="transform-origin: 50px 50px 0px; animation-duration: 1.1s; animation-delay: -0.806667s; animation-direction: normal;" class="ld ld-heartbeat"><path class="st13" d="M43.835,75.542c-1.755-3.049-6.536-6.455-7.949-7.553c-1.413-1.098-7.122-3.477-8.131-3.99 c-1.01-0.513-2.033-1.826-2.367-2.408c-0.334-0.582-0.619-1.187-1.158-2.015c-0.951,0.194-2.045,1.752-2.094,2.838 s0.761,2.551,1.14,3.187c0.61,1.023,1.648,2.081,2.257,2.642c0.797,0.735,2.105,1.676,2.244,2.064 c0.139,0.388-0.031,0.729-0.652,0.622c-0.621-0.107-3.873-0.287-4.979-0.745c-1.233-0.511-2.999-2.743-3.744-4.217 c-0.252-0.498-0.552-1.125-0.854-1.777c0.247-0.834,0.719-2.479,0.793-3.092c0.101-0.836,0.075-2.826-0.11-3.503 c-0.185-0.677-0.59-1.331-1.77-1.595c-0.271,0.673-0.646,2.207-0.928,3.498c-0.463-0.836-1.086-1.727-1.522-2.145 c-0.665-0.637-1.701-1.069-1.701-1.069s-0.662-0.202-1.41-0.243c-0.602-0.033-1.051,0.544-0.848,1.112 c1.169,3.274,4.032,11.237,5.29,13.424c1.414,2.458,2.544,3.851,3.913,4.964s15.065,5.445,15.065,5.445s1.659,0.427,2.401,1.279 c0.742,0.852,2.784,6.975,2.784,6.975l7.439-6.445C46.941,82.796,45.62,78.644,43.835,75.542z" fill="#00c0ff" style="fill: rgb(0, 192, 255);"></path></g><g style="transform-origin: 50px 50px 0px; animation-duration: 1.1s; animation-delay: -0.733333s; animation-direction: normal;" class="ld ld-heartbeat"><path class="st13" d="M56.165,75.542c1.755-3.049,6.536-6.455,7.949-7.553c1.413-1.098,7.122-3.477,8.131-3.99 c1.01-0.513,2.033-1.826,2.367-2.408c0.334-0.582,0.619-1.187,1.158-2.015c0.951,0.194,2.045,1.752,2.094,2.838 s-0.761,2.551-1.14,3.187c-0.61,1.023-1.648,2.081-2.257,2.642c-0.797,0.735-2.105,1.676-2.244,2.064 c-0.139,0.388,0.031,0.729,0.652,0.622c0.621-0.107,3.873-0.287,4.979-0.745c1.233-0.511,2.999-2.743,3.744-4.217 c0.252-0.498,0.552-1.125,0.854-1.777c-0.247-0.834-0.719-2.479-0.793-3.092c-0.101-0.836-0.075-2.826,0.11-3.503 c0.185-0.677,0.59-1.331,1.77-1.595c0.271,0.673,0.646,2.207,0.928,3.498c0.463-0.836,1.086-1.727,1.522-2.145 c0.665-0.637,1.701-1.069,1.701-1.069s0.662-0.202,1.41-0.243c0.602-0.033,1.051,0.544,0.848,1.112 c-1.169,3.274-4.032,11.237-5.29,13.424c-1.414,2.458-2.544,3.851-3.913,4.964c-1.37,1.113-15.065,5.445-15.065,5.445 s-1.659,0.427-2.401,1.279s-2.784,6.975-2.784,6.975l-7.439-6.445C53.059,82.796,54.38,78.644,56.165,75.542z" fill="#00c0ff" style="fill: rgb(0, 192, 255);"></path></g><metadata xmlns:d="https://loading.io/stock/" style="transform-origin: 50px 50px 0px; animation-duration: 1.1s; animation-delay: -0.66s; animation-direction: normal;" class="ld ld-heartbeat">
<d:name style="transform-origin: 50px 50px 0px; animation-duration: 1.1s; animation-delay: -0.586667s; animation-direction: normal;" class="ld ld-heartbeat">home</d:name>
<d:tags style="transform-origin: 50px 50px 0px; animation-duration: 1.1s; animation-delay: -0.513333s; animation-direction: normal;" class="ld ld-heartbeat">insurance,protect,security,guard,shelter,family,child,home,business</d:tags>
<d:license style="transform-origin: 50px 50px 0px; animation-duration: 1.1s; animation-delay: -0.44s; animation-direction: normal;" class="ld ld-heartbeat">rf</d:license>
<d:slug style="transform-origin: 50px 50px 0px; animation-duration: 1.1s; animation-delay: -0.366667s; animation-direction: normal;" class="ld ld-heartbeat">avu4ig</d:slug>
</metadata></g></g></g></g><style type="text/css" style="transform-origin: 50px 50px 0px; animation-duration: 1.1s; animation-delay: -0.293333s; animation-direction: normal;" class="ld ld-heartbeat">@keyframes ld-heartbeat {
  0% {
    -webkit-transform: scale(1.05);
    transform: scale(1.05);
  }
  5% {
    -webkit-transform: scale(1.25);
    transform: scale(1.25);
  }
  39% {
    -webkit-transform: scale(0.9);
    transform: scale(0.9);
  }
  45% {
    -webkit-transform: scale(1.15);
    transform: scale(1.15);
  }
  60% {
    -webkit-transform: scale(1.05);
    transform: scale(1.05);
  }
  100% {
    -webkit-transform: scale(1);
    transform: scale(1);
  }
}
@-webkit-keyframes ld-heartbeat {
  0% {
    -webkit-transform: scale(1.05);
    transform: scale(1.05);
  }
  5% {
    -webkit-transform: scale(1.25);
    transform: scale(1.25);
  }
  39% {
    -webkit-transform: scale(0.9);
    transform: scale(0.9);
  }
  45% {
    -webkit-transform: scale(1.15);
    transform: scale(1.15);
  }
  60% {
    -webkit-transform: scale(1.05);
    transform: scale(1.05);
  }
  100% {
    -webkit-transform: scale(1);
    transform: scale(1);
  }
}
.ld.ld-heartbeat {
  -webkit-animation: ld-heartbeat 0.8s infinite cubic-bezier(0.215, 0.61, 0.355, 1);
  animation: ld-heartbeat 0.8s infinite cubic-bezier(0.215, 0.61, 0.355, 1);
}
</style></svg></svg>